<?xml version="1.0" encoding="UTF-8" standalone="no"?> <svg width="64" height="64" viewBox="0 0 64 64" fill="none" xmlns="http://www.w3.org/2000/svg">
<path d="M6.25 20.5H19.9C20.1652 20.5 20.4196 20.3946 20.6071 20.2071C20.7946 20.0196 20.9 19.7652 20.9 19.5C20.9 19.2348 20.7946 18.9804 20.6071 18.7929C20.4196 18.6054 20.1652 18.5 19.9 18.5H6.25C5.98478 18.5 5.73043 18.6054 5.54289 18.7929C5.35536 18.9804 5.25 19.2348 5.25 19.5C5.25 19.7652 5.35536 20.0196 5.54289 20.2071C5.73043 20.3946 5.98478 20.5 6.25 20.5Z" fill="url(#paint0_linear)"/>
<path d="M9.1499 23.8801C8.88469 23.8801 8.63033 23.9855 8.4428 24.173C8.25526 24.3606 8.1499 24.6149 8.1499 24.8801C8.1499 25.1453 8.25526 25.3997 8.4428 25.5872C8.63033 25.7748 8.88469 25.8801 9.1499 25.8801H19.2699C19.5351 25.8801 19.7895 25.7748 19.977 25.5872C20.1645 25.3997 20.2699 25.1453 20.2699 24.8801C20.2699 24.6149 20.1645 24.3606 19.977 24.173C19.7895 23.9855 19.5351 23.8801 19.2699 23.8801H9.1499Z" fill="url(#paint1_linear)"/>
<path d="M4 31.25H18.65C18.9152 31.25 19.1696 31.1446 19.3571 30.9571C19.5446 30.7696 19.65 30.5152 19.65 30.25C19.65 29.9848 19.5446 29.7304 19.3571 29.5429C19.1696 29.3554 18.9152 29.25 18.65 29.25H4C3.73478 29.25 3.48043 29.3554 3.29289 29.5429C3.10536 29.7304 3 29.9848 3 30.25C3 30.5152 3.10536 30.7696 3.29289 30.9571C3.48043 31.1446 3.73478 31.25 4 31.25V31.25Z" fill="url(#paint2_linear)"/>
<path d="M18.81 35.6301C18.81 35.3649 18.7046 35.1106 18.5171 34.923C18.3296 34.7355 18.0752 34.6301 17.81 34.6301H7.75C7.48478 34.6301 7.23043 34.7355 7.04289 34.923C6.85536 35.1106 6.75 35.3649 6.75 35.6301C6.75 35.8953 6.85536 36.1497 7.04289 36.3372C7.23043 36.5248 7.48478 36.6301 7.75 36.6301H17.81C18.0752 36.6301 18.3296 36.5248 18.5171 36.3372C18.7046 36.1497 18.81 35.8953 18.81 35.6301Z" fill="url(#paint3_linear)"/>
<path d="M5.25 40C4.98478 40 4.73043 40.1054 4.54289 40.2929C4.35536 40.4804 4.25 40.7348 4.25 41C4.25 41.2652 4.35536 41.5196 4.54289 41.7071C4.73043 41.8946 4.98478 42 5.25 42H14.25C14.5152 42 14.7696 41.8946 14.9571 41.7071C15.1446 41.5196 15.25 41.2652 15.25 41C15.25 40.7348 15.1446 40.4804 14.9571 40.2929C14.7696 40.1054 14.5152 40 14.25 40H5.25Z" fill="url(#paint4_linear)"/>
<path d="M34.69 46H4C3.73478 46 3.48043 46.1054 3.29289 46.2929C3.10536 46.4804 3 46.7348 3 47C3 47.2652 3.10536 47.5196 3.29289 47.7071C3.48043 47.8946 3.73478 48 4 48H34.69C34.9552 48 35.2096 47.8946 35.3971 47.7071C35.5846 47.5196 35.69 47.2652 35.69 47C35.69 46.7348 35.5846 46.4804 35.3971 46.2929C35.2096 46.1054 34.9552 46 34.69 46Z" fill="url(#paint5_linear)"/>
<path d="M51.23 46H39.23C38.9648 46 38.7104 46.1054 38.5229 46.2929C38.3353 46.4804 38.23 46.7348 38.23 47C38.23 47.2652 38.3353 47.5196 38.5229 47.7071C38.7104 47.8946 38.9648 48 39.23 48H51.23C51.4952 48 51.7496 47.8946 51.9371 47.7071C52.1246 47.5196 52.23 47.2652 52.23 47C52.23 46.7348 52.1246 46.4804 51.9371 46.2929C51.7496 46.1054 51.4952 46 51.23 46Z" fill="url(#paint6_linear)"/>
<path d="M47.74 16.36C47.6492 16.251 47.5363 16.1624 47.4087 16.1004C47.2811 16.0383 47.1418 16.0041 47 16H20.18C19.9327 15.9985 19.6937 16.0886 19.5091 16.253C19.3244 16.4174 19.2072 16.6443 19.18 16.89L16.82 37.38C16.8042 37.5203 16.8184 37.6624 16.8614 37.7968C16.9045 37.9312 16.9756 38.055 17.07 38.16C17.1626 38.2654 17.2763 38.3502 17.4038 38.4088C17.5313 38.4673 17.6697 38.4984 17.81 38.5H44.62C44.8672 38.5015 45.1062 38.4114 45.2909 38.247C45.4755 38.0827 45.5928 37.8557 45.62 37.61L48 17.14C48.0144 16.999 47.9987 16.8565 47.9538 16.7221C47.909 16.5876 47.8361 16.4642 47.74 16.36V16.36Z" fill="url(#paint7_linear)"/>
<path d="M45.18 36.82C45.0868 36.7195 44.9738 36.6392 44.8483 36.5841C44.7227 36.5291 44.5871 36.5005 44.45 36.5H15.87C15.6429 36.4928 15.4201 36.5632 15.2384 36.6995C15.0566 36.8358 14.9267 37.03 14.87 37.25L13.29 43.34C13.2525 43.4876 13.2493 43.6418 13.2805 43.7908C13.3117 43.9399 13.3765 44.0798 13.47 44.2C13.5632 44.321 13.6828 44.4191 13.8197 44.4867C13.9567 44.5543 14.1073 44.5896 14.26 44.59H20.5C20.7652 44.59 21.0196 44.4847 21.2071 44.2971C21.3946 44.1096 21.5 43.8552 21.5 43.59C21.5 42.9561 21.7518 42.3482 22.2 41.9C22.6482 41.4518 23.2561 41.2 23.89 41.2C24.5239 41.2 25.1318 41.4518 25.58 41.9C26.0282 42.3482 26.28 42.9561 26.28 43.59C26.28 43.8552 26.3854 44.1096 26.5729 44.2971C26.7604 44.4847 27.0148 44.59 27.28 44.59H44C44.2535 44.5906 44.4978 44.4949 44.6835 44.3223C44.8691 44.1496 44.9823 43.9129 45 43.66L45.41 37.57C45.4242 37.436 45.4111 37.3004 45.3716 37.1715C45.3321 37.0426 45.2669 36.9231 45.18 36.82Z" fill="url(#paint8_linear)"/>
<path d="M23.89 39.2C23.0217 39.2 22.173 39.4574 21.451 39.9398C20.7291 40.4222 20.1664 41.1078 19.8342 41.91C19.5019 42.7121 19.415 43.5948 19.5844 44.4464C19.7537 45.298 20.1719 46.0802 20.7858 46.6941C21.3998 47.3081 22.182 47.7262 23.0336 47.8956C23.8851 48.065 24.7678 47.9781 25.57 47.6458C26.3722 47.3135 27.0578 46.7508 27.5402 46.0289C28.0225 45.307 28.28 44.4582 28.28 43.59C28.2774 42.4265 27.814 41.3114 26.9913 40.4887C26.1686 39.666 25.0535 39.2026 23.89 39.2V39.2Z" fill="url(#paint9_linear)"/>
<path d="M60.9999 34.8801C61.015 34.7941 61.015 34.7061 60.9999 34.6201C61.0043 34.5635 61.0043 34.5067 60.9999 34.4501C60.9817 34.3867 60.9548 34.3261 60.9199 34.2701C60.8757 34.2086 60.8254 34.1517 60.7699 34.1001C60.7699 34.1001 60.7699 34.0301 60.6899 34.0101L53.4999 28.4101H53.4099C53.3442 28.3657 53.2738 28.3288 53.1999 28.3001C53.1434 28.2945 53.0864 28.2945 53.0299 28.3001C52.9833 28.2954 52.9364 28.2954 52.8899 28.3001H45.6899C45.4411 28.2989 45.2008 28.3904 45.0159 28.5568C44.831 28.7232 44.7148 28.9526 44.6899 29.2001L42.9999 43.4801C42.9841 43.6204 42.9983 43.7624 43.0414 43.8969C43.0845 44.0313 43.1555 44.1551 43.2499 44.2601C43.3434 44.3637 43.4575 44.4466 43.585 44.5034C43.7124 44.5602 43.8504 44.5898 43.9899 44.5901H48.9899C48.8365 44.2792 48.7578 43.9368 48.7599 43.5901C48.7592 43.2447 48.8343 42.9033 48.9799 42.5901C49.1712 42.1756 49.4773 41.8246 49.8618 41.5785C50.2464 41.3325 50.6934 41.2017 51.1499 41.2017C51.6064 41.2017 52.0534 41.3325 52.438 41.5785C52.8225 41.8246 53.1286 42.1756 53.3199 42.5901C53.4655 42.9033 53.5406 43.2447 53.5399 43.5901C53.542 43.9368 53.4633 44.2792 53.3099 44.5901H58.3099C58.5467 44.594 58.7772 44.5137 58.9603 44.3635C59.1434 44.2133 59.2673 44.0031 59.3099 43.7701L60.9999 35.0601V35.0001C61.0089 34.9606 61.0089 34.9196 60.9999 34.8801V34.8801Z" fill="url(#paint10_linear)"/>
<path d="M53.7301 37.4H48.8701C48.6049 37.4 48.3505 37.2946 48.163 37.1071C47.9755 36.9196 47.8701 36.6652 47.8701 36.4V32C47.8701 31.7348 47.9755 31.4804 48.163 31.2929C48.3505 31.1054 48.6049 31 48.8701 31C49.1353 31 49.3897 31.1054 49.5772 31.2929C49.7648 31.4804 49.8701 31.7348 49.8701 32V35.4H53.7301C53.9953 35.4 54.2497 35.5054 54.4372 35.6929C54.6248 35.8804 54.7301 36.1348 54.7301 36.4C54.7301 36.6652 54.6248 36.9196 54.4372 37.1071C54.2497 37.2946 53.9953 37.4 53.7301 37.4Z" fill="url(#paint11_linear)"/>
<path d="M51.2301 39.2C50.3618 39.2 49.5131 39.4574 48.7911 39.9398C48.0692 40.4222 47.5065 41.1078 47.1743 41.91C46.842 42.7121 46.7551 43.5948 46.9244 44.4464C47.0938 45.298 47.5119 46.0802 48.1259 46.6941C48.7398 47.3081 49.5221 47.7262 50.3736 47.8956C51.2252 48.065 52.1079 47.9781 52.9101 47.6458C53.7122 47.3135 54.3979 46.7508 54.8802 46.0289C55.3626 45.307 55.6201 44.4582 55.6201 43.59C55.6174 42.4265 55.1541 41.3114 54.3314 40.4887C53.5087 39.666 52.3936 39.2026 51.2301 39.2V39.2Z" fill="url(#paint12_linear)"/>
<path d="M28 18.6701C26.3 16.7701 21.57 22.9401 23 24.3701C24.62 26.2701 29.35 20.1001 28 18.6701Z" fill="white"/>
<path d="M20.23 27.38C18.84 29.38 19.86 31.09 21.52 28.67C22.91 26.65 21.9 25 20.23 27.38Z" fill="white"/>
<defs>
<linearGradient id="paint0_linear" x1="5.25" y1="19.5" x2="20.9" y2="19.5" gradientUnits="userSpaceOnUse">
<stop stop-color="#B7D389"/>
<stop offset="0.22" stop-color="#A1C571"/>
<stop offset="0.69" stop-color="#69A134"/>
<stop offset="1" stop-color="#418808"/>
</linearGradient>
<linearGradient id="paint1_linear" x1="106.928" y1="73.6401" x2="253.822" y2="73.6401" gradientUnits="userSpaceOnUse">
<stop stop-color="#B7D389"/>
<stop offset="0.22" stop-color="#A1C571"/>
<stop offset="0.69" stop-color="#69A134"/>
<stop offset="1" stop-color="#418808"/>
</linearGradient>
<linearGradient id="paint2_linear" x1="52.95" y1="89.75" x2="330.172" y2="89.75" gradientUnits="userSpaceOnUse">
<stop stop-color="#B7D389"/>
<stop offset="0.22" stop-color="#A1C571"/>
<stop offset="0.69" stop-color="#69A134"/>
<stop offset="1" stop-color="#418808"/>
</linearGradient>
<linearGradient id="paint3_linear" x1="88.155" y1="105.89" x2="233.599" y2="105.89" gradientUnits="userSpaceOnUse">
<stop stop-color="#B7D389"/>
<stop offset="0.22" stop-color="#A1C571"/>
<stop offset="0.69" stop-color="#69A134"/>
<stop offset="1" stop-color="#418808"/>
</linearGradient>
<linearGradient id="paint4_linear" x1="51" y1="122" x2="172.44" y2="122" gradientUnits="userSpaceOnUse">
<stop stop-color="#B7D389"/>
<stop offset="0.22" stop-color="#A1C571"/>
<stop offset="0.69" stop-color="#69A134"/>
<stop offset="1" stop-color="#418808"/>
</linearGradient>
<linearGradient id="paint5_linear" x1="101.07" y1="139.96" x2="1169.71" y2="139.96" gradientUnits="userSpaceOnUse">
<stop stop-color="#B7D389"/>
<stop offset="0.22" stop-color="#A1C571"/>
<stop offset="0.69" stop-color="#69A134"/>
<stop offset="1" stop-color="#418808"/>
</linearGradient>
<linearGradient id="paint6_linear" x1="574.01" y1="139.96" x2="769.45" y2="139.96" gradientUnits="userSpaceOnUse">
<stop stop-color="#B7D389"/>
<stop offset="0.22" stop-color="#A1C571"/>
<stop offset="0.69" stop-color="#69A134"/>
<stop offset="1" stop-color="#418808"/>
</linearGradient>
<linearGradient id="paint7_linear" x1="16.81" y1="27.26" x2="47.99" y2="27.26" gradientUnits="userSpaceOnUse">
<stop stop-color="#418607"/>
<stop offset="0.91" stop-color="#206507"/>
<stop offset="1" stop-color="#1D6207"/>
</linearGradient>
<linearGradient id="paint8_linear" x1="440.616" y1="364.569" x2="1474.44" y2="364.569" gradientUnits="userSpaceOnUse">
<stop stop-color="#B7D389"/>
<stop offset="0.22" stop-color="#A1C571"/>
<stop offset="0.69" stop-color="#69A134"/>
<stop offset="1" stop-color="#418808"/>
</linearGradient>
<linearGradient id="paint9_linear" x1="190.71" y1="421.92" x2="267.798" y2="421.92" gradientUnits="userSpaceOnUse">
<stop stop-color="#418607"/>
<stop offset="0.91" stop-color="#206507"/>
<stop offset="1" stop-color="#1D6207"/>
</linearGradient>
<linearGradient id="paint10_linear" x1="818.291" y1="621.41" x2="1141.71" y2="621.41" gradientUnits="userSpaceOnUse">
<stop stop-color="#B7D389"/>
<stop offset="0.22" stop-color="#A1C571"/>
<stop offset="0.69" stop-color="#69A134"/>
<stop offset="1" stop-color="#418808"/>
</linearGradient>
<linearGradient id="paint11_linear" x1="376.258" y1="249.88" x2="423.318" y2="249.88" gradientUnits="userSpaceOnUse">
<stop stop-color="#418607"/>
<stop offset="0.91" stop-color="#206507"/>
<stop offset="1" stop-color="#1D6207"/>
</linearGradient>
<linearGradient id="paint12_linear" x1="458.095" y1="421.92" x2="535.184" y2="421.92" gradientUnits="userSpaceOnUse">
<stop stop-color="#418607"/>
<stop offset="0.91" stop-color="#206507"/>
<stop offset="1" stop-color="#1D6207"/>
</linearGradient>
</defs>
</svg>
