<?xml version="1.0" encoding="UTF-8"?>
<!DOCTYPE svg PUBLIC "-//W3C//DTD SVG 1.1//EN" "http://www.w3.org/Graphics/SVG/1.1/DTD/svg11.dtd">
<svg version="1.1" xmlns="http://www.w3.org/2000/svg" xmlns:xlink="http://www.w3.org/1999/xlink" x="0" y="0" width="596" height="597" viewBox="0, 0, 596, 597">
  <defs>
    <linearGradient id="Gradient_1" gradientUnits="userSpaceOnUse" x1="603.064" y1="458.043" x2="618.081" y2="539.13">
      <stop offset="0" stop-color="#949594"/>
      <stop offset="1" stop-color="#FFFFFE"/>
    </linearGradient>
    <linearGradient id="Gradient_2" gradientUnits="userSpaceOnUse" x1="33.216" y1="169.435" x2="562.064" y2="169.435">
      <stop offset="0" stop-color="#BFC0BF"/>
      <stop offset="1" stop-color="#FFFFFE"/>
    </linearGradient>
    <linearGradient id="Gradient_3" gradientUnits="userSpaceOnUse" x1="474.213" y1="503.383" x2="145.058" y2="437.552">
      <stop offset="0" stop-color="#CD8D4B"/>
      <stop offset="1" stop-color="#C27C43"/>
    </linearGradient>
    <linearGradient id="Gradient_4" gradientUnits="userSpaceOnUse" x1="33.216" y1="169.435" x2="562.064" y2="169.435">
      <stop offset="0" stop-color="#BFC0BF"/>
      <stop offset="0.307" stop-color="#EAEAE9"/>
      <stop offset="0.627" stop-color="#BDBEBD"/>
      <stop offset="1" stop-color="#FFFFFE"/>
    </linearGradient>
    <linearGradient id="Gradient_5" gradientUnits="userSpaceOnUse" x1="545.169" y1="213.876" x2="559.29" y2="358.6">
      <stop offset="0" stop-color="#E38F2E"/>
      <stop offset="1" stop-color="#AF5732"/>
    </linearGradient>
    <linearGradient id="Gradient_6" gradientUnits="userSpaceOnUse" x1="542.677" y1="158.747" x2="542.677" y2="376.961">
      <stop offset="0" stop-color="#E9AD57"/>
      <stop offset="1" stop-color="#C5612F"/>
    </linearGradient>
    <linearGradient id="Gradient_7" gradientUnits="userSpaceOnUse" x1="517.03" y1="158.631" x2="530.319" y2="328.735">
      <stop offset="0" stop-color="#FFF9BE"/>
      <stop offset="1" stop-color="#F8C54B"/>
    </linearGradient>
    <linearGradient id="Gradient_8" gradientUnits="userSpaceOnUse" x1="327.108" y1="272.319" x2="295.194" y2="275.262">
      <stop offset="0" stop-color="#EC987D"/>
      <stop offset="1" stop-color="#E0553E"/>
    </linearGradient>
    <linearGradient id="Gradient_9" gradientUnits="userSpaceOnUse" x1="216.214" y1="153.144" x2="246.324" y2="156.321">
      <stop offset="0" stop-color="#EC987D"/>
      <stop offset="1" stop-color="#E0553E"/>
    </linearGradient>
    <linearGradient id="Gradient_10" gradientUnits="userSpaceOnUse" x1="415.233" y1="239.53" x2="445.951" y2="242.842">
      <stop offset="0" stop-color="#EC987D"/>
      <stop offset="1" stop-color="#E0553E"/>
    </linearGradient>
    <linearGradient id="Gradient_11" gradientUnits="userSpaceOnUse" x1="333.732" y1="170.668" x2="367.043" y2="173.924">
      <stop offset="0" stop-color="#EC987D"/>
      <stop offset="1" stop-color="#E0553E"/>
    </linearGradient>
    <linearGradient id="Gradient_12" gradientUnits="userSpaceOnUse" x1="120.446" y1="244.35" x2="152.953" y2="247.167">
      <stop offset="0" stop-color="#EC987D"/>
      <stop offset="1" stop-color="#E0553E"/>
    </linearGradient>
  </defs>
  <g id="Layer_1">
    <path d="M562.064,320.058 C562.064,392.49 447.718,451.201 295.326,451.201 C142.943,451.201 33.216,392.49 33.216,320.058 C33.216,247.636 142.943,188.916 295.326,188.916 C447.718,188.916 562.064,247.636 562.064,320.058 z" fill="url(#Gradient_1)"/>
    <path d="M562.064,293.31 C562.064,374.052 440.824,433.71 288.431,433.71 C136.048,433.71 33.216,374.052 33.216,293.31 C33.216,220.888 142.943,171.435 295.326,171.435 C447.718,171.435 562.064,220.888 562.064,293.31 z" fill="url(#Gradient_2)"/>
    <path d="M562.064,293.31 C562.064,374.052 440.824,433.71 288.431,433.71 C136.048,433.71 33.216,374.052 33.216,293.31 C33.216,220.888 142.943,171.435 295.326,171.435 C447.718,171.435 562.064,220.888 562.064,293.31 z" fill-opacity="0" stroke="#8A8B8A" stroke-width="5.327" stroke-linecap="round" stroke-linejoin="round"/>
    <path d="M562.064,293.31 C562.064,374.052 440.824,433.71 288.431,433.71 C136.048,433.71 33.216,374.052 33.216,293.31 C33.216,220.888 142.943,171.435 295.326,171.435 C447.718,171.435 562.064,220.888 562.064,293.31 z" fill="url(#Gradient_3)"/>
    <path d="M295.326,171.435 C142.943,171.435 33.216,220.888 33.216,293.31 C33.216,374.052 136.048,433.71 288.431,433.71 C440.824,433.71 562.064,374.052 562.064,293.31 C562.064,220.888 447.718,171.435 295.326,171.435 z M289.076,391.992 C157.445,391.992 75.98,341.093 75.98,293.955 C75.98,260.087 152.259,213.154 295.502,213.154 C439.583,213.154 519.291,260.927 519.291,293.955 C519.291,334.892 431.703,391.992 289.076,391.992" fill="url(#Gradient_4)"/>
    <path d="M295.326,171.435 C142.943,171.435 33.216,220.888 33.216,293.31 C33.216,374.052 136.048,433.71 288.431,433.71 C440.824,433.71 562.064,374.052 562.064,293.31 C562.064,220.888 447.718,171.435 295.326,171.435 z M289.076,391.992 C157.445,391.992 75.98,341.093 75.98,293.955 C75.98,260.087 152.259,213.154 295.502,213.154 C439.583,213.154 519.291,260.927 519.291,293.955 C519.291,334.892 431.703,391.992 289.076,391.992 z" fill-opacity="0" stroke="#8A8B8A" stroke-width="4.549" stroke-linecap="round" stroke-linejoin="round"/>
    <path d="M542.474,281.279 C542.474,355.703 433.724,416.035 299.583,416.035 C165.423,416.035 56.693,355.703 56.693,281.279 C56.693,206.855 165.423,146.523 299.583,146.523 C433.724,146.523 542.474,206.855 542.474,281.279 z" fill="url(#Gradient_5)"/>
    <path d="M58.49,265.117 C72.904,317.597 172.435,364.99 296.712,364.99 C420.99,364.99 526.263,317.597 540.677,265.117 C540.677,188.603 423.861,146.523 299.583,146.523 C175.306,146.523 71.253,187.265 58.49,265.117 z" fill="url(#Gradient_6)"/>
    <path d="M200.443,165.693 C223.646,169.365 241.4,148.837 263.099,146.328 C288.265,143.408 307.181,155.683 330.755,157.148 C359.046,158.916 384.603,151.142 410.414,164.296 C420.599,169.502 430.248,177.597 440.453,182.187 C453.529,188.066 469.271,187.285 482.337,192.929 C499.935,200.527 519.955,221.748 521.449,244.785 C522.474,260.546 514.193,267.763 509.437,280.566 C504.613,293.603 506.449,300.087 492.962,306.992 C469.418,319.043 446.654,310.81 443.373,350.312 C442.357,362.402 446.859,383.359 434.759,390.156 C417.914,399.609 421.576,377.226 419.349,366.425 C412.377,332.607 383.304,348.808 362.279,350.312 C349.154,351.259 335.668,347.177 324.681,357.861 C315.619,366.669 314.544,377.959 301.888,382.109 C276.595,390.42 265.287,362.041 243.646,355.634 C226.986,350.712 211.712,358.632 195.619,359.257 C174.007,360.097 179.935,340.859 164.154,332.334 C137.611,317.998 149.066,354.658 135.619,361.142 C118.802,369.228 126.38,338.076 123.46,331.318 C117.464,317.5 106.605,325.38 95.443,320.654 C83.734,315.693 76.556,299.072 70.599,286.406 C59.291,262.304 79.837,257.402 87.533,241.259 C94.642,226.347 90.277,210.205 105.814,198.73 C135.345,176.914 165.443,160.156 200.443,165.693 z" fill="url(#Gradient_7)"/>
    <path d="M424.066,344.306 C425.658,346.259 426.849,349.384 426.966,352.021 C427.103,354.863 427.572,358.31 426.771,361.035 C426.478,362.07 425.668,364.316 424.33,363.251 C422.376,361.709 423.255,358.125 422.728,355.898 C422.259,353.916 421.087,351.777 420.033,350.156 C417.396,346.132 413.294,343.906 409.72,341.152 C408.119,339.912 404.115,339.677 403.9,337.324 C403.568,333.73 411.673,336.123 413.705,336.865 C417.875,338.418 421.439,341.074 424.066,344.306" fill="#FFFFFE"/>
    <path d="M302.142,366.728 C306.693,366.474 308.431,369.443 304.662,371.552 C300.99,373.623 296.312,374.804 291.966,375.224 C288.724,375.546 284.642,375.459 282.396,373.164 C280.775,371.533 279.515,366.767 283.763,367.539 C286.41,368.027 287.523,370.097 290.677,370.009 C293.705,369.931 296.595,368.271 299.3,367.265 C300.121,366.972 301.117,366.787 302.142,366.728" fill="#FFFFFE"/>
    <path d="M309.222,364.101 C306.82,363.486 314.349,352.763 318.128,356.298 C316.898,358.154 315.433,361.308 313.431,362.763 C311.82,363.925 308.216,365.781 308.802,362.734" fill="#FFFFFE"/>
    <path d="M102.709,309.97 C106.224,313.662 105.726,317.568 101.712,316.084 C97.767,314.609 93.636,311.562 90.179,308.173 C87.611,305.664 84.662,302.08 84.359,298.3 C84.154,295.566 86.048,290.595 88.705,294.853 C90.365,297.529 89.955,300.175 92.328,302.822 C94.613,305.351 97.728,306.464 100.306,307.968 C101.087,308.427 101.927,309.14 102.709,309.97" fill="#FFFFFE"/>
    <path d="M109.486,313.906 C108.089,311.337 119.994,309.052 120.677,315.166 C118.666,315.625 115.716,316.943 113.373,316.425 C111.498,315.986 107.748,314.404 109.974,312.421" fill="#FFFFFE"/>
    <path d="M425.218,383.457 C425.433,380.781 422.982,376.826 424.31,374.511 C426.888,369.951 427.689,376.562 428.783,378.837 C429.789,380.898 433.724,382.959 430.13,385.791 C427.415,387.939 425.228,385.029 425.218,382.06" fill="#FFFFFE"/>
    <path d="M257.455,310.234 C257.543,325.918 273.08,338.535 292.181,338.418 C311.283,338.291 326.693,325.478 326.625,309.795 C326.546,294.121 311.009,281.513 291.898,281.63 C272.806,281.748 257.396,294.56 257.455,310.234" fill="#DE4547"/>
    <path d="M258.236,305.878 C258.314,320.566 273.841,332.392 292.943,332.275 C312.044,332.148 327.464,320.136 327.396,305.439 C327.318,290.742 311.791,278.935 292.689,279.052 C273.587,279.169 258.168,291.191 258.236,305.878 z" fill="url(#Gradient_8)"/>
    <path d="M308.5,302.617 C308.519,305.175 311.302,307.226 314.72,307.207 C318.138,307.187 320.912,305.097 320.902,302.548 C320.882,300 318.099,297.949 314.681,297.959 C311.263,297.988 308.49,300.078 308.5,302.617" fill="#ED9A83"/>
    <path d="M296.791,317.138 C294.29,319.492 297.337,320.654 300.208,321.21 C303.216,321.806 309.564,322.89 309.535,317.5 C309.525,314.746 306.742,313.388 304.564,313.095 C301.517,312.656 300.296,314.638 297.865,316.289 C297.425,316.582 297.064,316.865 296.791,317.138" fill="#ED9A83"/>
    <path d="M262.748,304.121 C262.513,305.39 262.933,306.699 264.378,307.685 C267.279,309.628 273.509,308.535 273.49,304.13 C273.47,301.376 270.697,300.019 268.529,299.716 C266.009,299.355 263.197,301.679 262.748,304.121" fill="#ED9A83"/>
    <path d="M281.439,303.505 C281.986,303.701 282.474,303.837 282.865,303.906 C286.244,304.628 295.423,305.527 295.394,299.882 C295.375,297.461 292.728,296.064 291.302,294.658 C289.808,293.183 289.046,292.363 286.849,292.001 C283.519,291.455 278.041,291.875 275.287,294.306 C270.853,298.222 277.552,302.138 281.439,303.505" fill="#ED9A83"/>
    <path d="M272.962,315.752 C270.462,318.105 273.529,319.277 276.38,319.843 C279.378,320.419 285.716,321.503 285.707,316.113 C285.687,313.359 282.904,312.011 280.736,311.709 C277.679,311.269 276.468,313.242 274.037,314.902 C273.597,315.205 273.236,315.498 272.962,315.752" fill="#ED9A83"/>
    <path d="M292.347,287.509 C292.162,288.027 292.093,288.593 292.123,289.189 C292.357,293.291 304.584,293.457 304.544,287.675 C304.515,281.347 294.056,282.5 292.347,287.509" fill="#ED9A83"/>
    <path d="M281.38,188.085 C281.087,201.904 266.224,212.695 248.187,212.187 C230.15,211.689 215.775,200.078 216.068,186.25 C216.371,172.451 231.214,161.66 249.261,162.158 C267.298,162.656 281.673,174.267 281.38,188.085" fill="#DE4547"/>
    <path d="M280.716,184.218 C280.443,197.167 265.589,207.265 247.552,206.757 C229.505,206.25 215.111,195.341 215.394,182.412 C215.677,169.462 230.521,159.365 248.558,159.863 C266.595,160.38 280.99,171.279 280.716,184.218 z" fill="url(#Gradient_9)"/>
    <path d="M233.275,180.312 C233.236,182.558 230.56,184.316 227.337,184.218 C224.115,184.13 221.537,182.216 221.576,179.98 C221.634,177.734 224.281,175.986 227.513,176.074 C230.736,176.171 233.314,178.066 233.275,180.312" fill="#ED9A83"/>
    <path d="M244.134,193.349 C246.468,195.468 243.568,196.445 240.843,196.875 C238.001,197.324 231.986,198.154 232.103,193.408 C232.142,190.966 234.789,189.843 236.839,189.609 C239.74,189.306 240.853,191.064 243.128,192.578 C243.529,192.851 243.861,193.105 244.134,193.349" fill="#ED9A83"/>
    <path d="M276.468,182.597 C276.673,183.711 276.263,184.863 274.877,185.693 C272.123,187.343 266.244,186.24 266.332,182.373 C266.38,179.941 269.027,178.808 271.078,178.584 C273.451,178.33 276.087,180.429 276.468,182.597" fill="#ED9A83"/>
    <path d="M258.841,181.66 C258.314,181.806 257.845,181.923 257.474,181.982 C254.281,182.548 245.599,183.144 245.697,178.173 C245.755,176.035 248.275,174.853 249.632,173.652 C251.068,172.382 251.81,171.669 253.88,171.396 C257.044,170.986 262.21,171.474 264.759,173.671 C268.9,177.216 262.513,180.537 258.841,181.66" fill="#ED9A83"/>
    <path d="M266.673,192.626 C268.998,194.746 266.087,195.712 263.363,196.162 C260.531,196.601 254.525,197.441 254.623,192.695 C254.681,190.244 257.328,189.111 259.369,188.886 C262.269,188.574 263.392,190.341 265.658,191.855 C266.068,192.138 266.4,192.392 266.673,192.626" fill="#ED9A83"/>
    <path d="M248.753,167.324 C248.9,167.783 248.978,168.281 248.939,168.818 C248.665,172.412 237.123,172.314 237.23,167.226 C237.357,161.64 247.22,162.871 248.753,167.324" fill="#ED9A83"/>
    <path d="M481.712,276.054 C481.4,290.537 466.224,301.865 447.826,301.357 C429.427,300.849 414.759,288.671 415.052,274.179 C415.384,259.687 430.541,248.359 448.939,248.876 C467.357,249.394 482.005,261.552 481.712,276.054" fill="#DE4547"/>
    <path d="M481.029,272.002 C480.736,285.576 465.58,296.171 447.171,295.664 C428.773,295.136 414.095,283.71 414.388,270.146 C414.671,256.552 429.837,245.966 448.236,246.474 C466.634,246.992 481.322,258.418 481.029,272.002 z" fill="url(#Gradient_10)"/>
    <path d="M432.621,267.929 C432.582,270.293 429.867,272.138 426.566,272.031 C423.265,271.943 420.638,269.951 420.697,267.597 C420.746,265.244 423.451,263.408 426.751,263.496 C430.033,263.593 432.669,265.576 432.621,267.929" fill="#ED9A83"/>
    <path d="M443.695,281.591 C446.068,283.818 443.109,284.853 440.345,285.302 C437.435,285.781 431.302,286.64 431.419,281.67 C431.468,279.111 434.173,277.92 436.263,277.685 C439.212,277.363 440.365,279.209 442.689,280.8 C443.099,281.084 443.431,281.347 443.695,281.591" fill="#ED9A83"/>
    <path d="M476.703,270.293 C476.898,271.464 476.498,272.675 475.082,273.535 C472.259,275.273 466.263,274.13 466.361,270.068 C466.4,267.519 469.115,266.328 471.205,266.093 C473.626,265.81 476.322,268.017 476.703,270.293" fill="#ED9A83"/>
    <path d="M458.705,269.316 C458.177,269.482 457.708,269.599 457.318,269.668 C454.056,270.253 445.189,270.888 445.306,265.673 C445.355,263.427 447.943,262.187 449.33,260.927 C450.794,259.599 451.537,258.857 453.665,258.564 C456.888,258.134 462.162,258.642 464.759,260.937 C468.978,264.658 462.474,268.144 458.705,269.316" fill="#ED9A83"/>
    <path d="M466.693,280.81 C469.066,283.046 466.107,284.052 463.314,284.521 C460.433,284.99 454.3,285.878 454.408,280.888 C454.457,278.339 457.162,277.148 459.252,276.904 C462.201,276.582 463.343,278.418 465.668,280.009 C466.087,280.302 466.419,280.576 466.693,280.81" fill="#ED9A83"/>
    <path d="M448.431,254.296 C448.587,254.775 448.665,255.293 448.626,255.859 C448.333,259.638 436.556,259.541 436.673,254.189 C436.79,248.339 446.859,249.628 448.431,254.296" fill="#ED9A83"/>
    <path d="M405.892,205.8 C405.599,219.609 389.193,230.361 369.232,229.804 C349.281,229.248 333.353,217.587 333.646,203.769 C333.949,189.96 350.365,179.218 370.306,179.765 C390.267,180.322 406.195,191.982 405.892,205.8" fill="#DE4547"/>
    <path d="M405.15,201.933 C404.877,214.873 388.47,224.921 368.529,224.375 C348.568,223.808 332.621,212.861 332.904,199.921 C333.177,186.962 349.564,176.923 369.525,177.48 C389.486,178.037 405.423,188.984 405.15,201.933 z" fill="url(#Gradient_11)"/>
    <path d="M352.669,197.88 C352.63,200.136 349.691,201.875 346.107,201.767 C342.533,201.669 339.681,199.755 339.73,197.509 C339.779,195.273 342.708,193.525 346.283,193.632 C349.857,193.72 352.708,195.634 352.669,197.88" fill="#ED9A83"/>
    <path d="M364.72,210.947 C367.298,213.086 364.076,214.042 361.068,214.462 C357.943,214.912 351.283,215.712 351.39,210.976 C351.449,208.535 354.369,207.412 356.634,207.197 C359.828,206.894 361.087,208.652 363.587,210.175 C364.056,210.439 364.427,210.703 364.72,210.947" fill="#ED9A83"/>
    <path d="M400.453,200.283 C400.677,201.406 400.228,202.558 398.705,203.378 C395.658,205.029 389.154,203.906 389.232,200.039 C389.291,197.607 392.22,196.474 394.476,196.259 C397.123,196.005 400.033,198.125 400.453,200.283" fill="#ED9A83"/>
    <path d="M380.941,199.296 C380.365,199.453 379.857,199.56 379.447,199.628 C375.912,200.175 366.302,200.742 366.419,195.771 C366.459,193.642 369.251,192.461 370.755,191.269 C372.347,190 373.148,189.296 375.453,189.023 C378.939,188.623 384.662,189.121 387.494,191.328 C392.064,194.892 385.013,198.193 380.941,199.296" fill="#ED9A83"/>
    <path d="M389.632,210.292 C392.22,212.421 388.998,213.379 386,213.808 C382.855,214.248 376.224,215.068 376.312,210.312 C376.361,207.88 379.29,206.748 381.556,206.533 C384.759,206.22 386.009,207.988 388.529,209.511 C388.968,209.804 389.339,210.048 389.632,210.292" fill="#ED9A83"/>
    <path d="M369.759,184.941 C369.935,185.4 370.023,185.888 369.974,186.435 C369.681,190.019 356.908,189.892 357.005,184.794 C357.132,179.218 368.05,180.478 369.759,184.941" fill="#ED9A83"/>
    <path d="M261.576,314.16 C258.431,311.044 255.052,308.857 251.654,307.47 C253.392,305.283 254.642,302.636 255.169,299.629 C256.849,290.087 250.628,281.738 240.013,279.296 C229.427,276.865 220.833,281.816 219.154,291.357 C218.734,293.72 218.773,295.976 219.154,298.095 C217.689,297.617 216.185,297.236 214.613,297.031 C203.9,295.615 196.009,301.689 195.414,311.796 C194.837,321.914 201.927,329.97 212.64,331.386 C219.398,332.295 224.837,330.507 228.539,327.373 C229.808,330.556 231.869,333.691 234.701,336.494 C243.304,345.068 250.433,342.929 258.353,336.357 C266.253,329.775 270.169,322.724 261.576,314.16 z M251.957,329.892 C248.324,333.925 246.009,337.275 239.486,332.089 C236.478,329.677 234.877,327.421 233.763,324.13 C232.884,321.503 232.074,318.105 228.294,319.238 C223.197,320.771 222.337,324.804 216.126,323.857 C207.142,322.5 204.076,317.197 204.212,312.695 C204.339,308.3 208.119,303.74 212.044,302.578 C214.017,302.011 227.181,305.732 227.63,304.355 C228.9,300.478 226.097,296.503 228.158,292.461 C230.228,288.379 233.158,285.791 238.646,287.05 C243.177,288.095 247.63,291.416 246.537,297.646 C246.136,299.97 245.667,302.138 243.988,303.877 C242.445,305.478 240.443,305.38 242.044,307.607 C243.206,309.228 247.083,309.834 248.705,311.279 C250.306,312.695 251.615,314.521 253.226,316.025 C256.371,318.925 257.962,320.869 257.699,324.99 C257.513,328.095 253.47,328.203 251.957,329.892" fill="#447F41"/>
    <path d="M255.248,313.232 C252.767,310.791 250.111,309.062 247.435,307.978 C248.812,306.24 249.798,304.16 250.209,301.796 C251.537,294.296 246.634,287.705 238.285,285.791 C229.935,283.867 223.177,287.773 221.859,295.283 C221.537,297.148 221.556,298.925 221.859,300.585 C220.716,300.205 219.525,299.931 218.275,299.755 C209.837,298.642 203.646,303.418 203.177,311.386 C202.816,317.656 211.634,326.123 216.732,326.806 C222.044,327.509 226.341,326.103 229.242,323.652 C230.238,326.132 231.869,328.613 234.095,330.83 C240.873,337.558 246.908,335.8 253.128,330.625 C259.359,325.449 262.025,319.98 255.248,313.232 z M250.082,327.47 C247.22,330.634 243.011,331.425 237.865,327.353 C235.492,325.459 234.232,323.681 233.353,321.093 C232.669,319.023 232.035,316.337 229.056,317.226 C225.052,318.447 224.369,321.601 219.476,320.869 C212.396,319.794 209.994,315.625 210.091,312.08 C210.189,308.623 213.158,305.029 216.263,304.121 C217.826,303.671 228.177,306.611 228.539,305.507 C229.525,302.46 227.318,299.336 228.939,296.132 C230.58,292.949 232.884,290.908 237.201,291.894 C240.775,292.714 244.29,295.332 243.412,300.234 C243.099,302.07 242.728,303.779 241.4,305.146 C240.199,306.396 238.607,306.328 239.876,308.085 C240.794,309.355 243.851,309.834 245.13,310.966 C246.38,312.089 247.406,313.525 248.675,314.697 C251.146,317.002 252.406,318.515 252.201,321.757 C252.054,324.209 251.283,326.132 250.082,327.47" fill="#97A958"/>
    <path d="M175.345,236.23 C172.23,233.017 168.841,230.771 165.462,229.365 C167.22,227.07 168.49,224.296 169.046,221.181 C170.794,211.25 164.603,202.607 154.007,200.175 C143.412,197.734 134.779,202.968 133.021,212.9 C132.591,215.371 132.611,217.705 132.972,219.912 C131.517,219.423 130.013,219.052 128.441,218.857 C117.718,217.47 109.759,223.857 109.115,234.384 C108.46,244.902 115.502,253.222 126.224,254.599 C132.982,255.459 138.441,253.564 142.162,250.273 C143.421,253.564 145.462,256.806 148.275,259.707 C156.849,268.525 163.998,266.24 171.966,259.335 C179.935,252.421 183.919,245.058 175.345,236.23 z M165.609,252.675 C161.937,256.904 159.603,260.41 153.119,255.068 C150.111,252.597 148.519,250.263 147.435,246.845 C146.556,244.13 145.775,240.595 141.996,241.816 C136.869,243.457 135.97,247.656 129.769,246.728 C120.775,245.4 117.748,239.912 117.904,235.234 C118.07,230.654 121.888,225.878 125.834,224.638 C127.816,224.023 140.97,227.783 141.429,226.347 C142.728,222.304 139.945,218.183 142.044,213.964 C144.154,209.707 147.103,206.982 152.591,208.252 C157.123,209.296 161.556,212.714 160.423,219.189 C159.994,221.611 159.505,223.877 157.816,225.703 C156.263,227.373 154.252,227.295 155.843,229.599 C156.986,231.279 160.873,231.865 162.494,233.349 C164.076,234.804 165.365,236.699 166.966,238.232 C170.111,241.24 171.673,243.242 171.4,247.519 C171.185,250.761 167.142,250.898 165.609,252.675" fill="#447F41"/>
    <path d="M169.017,235.322 C166.566,232.802 163.91,231.035 161.253,229.931 C162.63,228.125 163.627,225.937 164.066,223.466 C165.433,215.664 160.58,208.857 152.24,206.943 C143.88,205.019 137.093,209.14 135.707,216.953 C135.365,218.916 135.384,220.742 135.677,222.47 C134.525,222.089 133.334,221.806 132.103,221.64 C123.646,220.556 117.396,225.585 116.888,233.876 C116.478,240.4 125.228,249.13 130.345,249.795 C135.677,250.468 139.974,248.974 142.904,246.386 C143.88,248.974 145.502,251.523 147.708,253.808 C154.457,260.752 160.511,258.867 166.791,253.427 C173.06,247.978 175.765,242.275 169.017,235.322 z M163.744,250.156 C160.873,253.496 156.634,254.365 151.517,250.156 C149.154,248.212 147.904,246.377 147.044,243.681 C146.361,241.552 145.746,238.769 142.767,239.726 C138.724,241.025 138.021,244.316 133.138,243.593 C126.068,242.539 123.685,238.232 123.802,234.541 C123.929,230.937 126.927,227.177 130.052,226.211 C131.615,225.722 141.957,228.681 142.328,227.539 C143.334,224.365 141.156,221.132 142.806,217.792 C144.447,214.453 146.791,212.304 151.107,213.291 C154.681,214.121 158.177,216.806 157.279,221.914 C156.927,223.818 156.556,225.605 155.218,227.031 C153.998,228.359 152.416,228.291 153.666,230.117 C154.574,231.425 157.64,231.894 158.9,233.066 C160.15,234.209 161.166,235.703 162.435,236.904 C164.906,239.277 166.136,240.839 165.931,244.218 C165.746,246.767 164.955,248.769 163.744,250.156" fill="#97A958"/>
    <path d="M487.064,232.343 C483.158,230.586 479.31,229.853 475.707,229.882 C476.644,227.021 476.976,223.935 476.517,220.781 C475.091,210.781 466.634,205.195 455.97,207.177 C445.287,209.16 438.822,217.519 440.257,227.519 C440.609,230.009 441.361,232.187 442.377,234.101 C440.873,234.228 439.349,234.492 437.806,234.931 C427.337,237.949 421.878,247.129 424.525,257.246 C427.162,267.353 436.322,272.304 446.771,269.267 C453.373,267.373 457.894,263.398 460.365,258.828 C462.552,261.396 465.462,263.603 468.988,265.185 C479.74,270 485.716,264.98 491.048,255.322 C496.361,245.644 497.816,237.148 487.064,232.343 z M483.041,251.64 C480.912,257.08 479.818,261.298 472.083,258.906 C468.509,257.793 466.302,256.25 464.232,253.496 C462.572,251.308 460.746,248.31 457.582,250.976 C453.294,254.57 453.753,258.857 447.66,260.488 C438.841,262.861 434.31,258.935 433.021,254.492 C431.751,250.156 433.841,244.15 437.162,241.396 C438.822,240.029 452.289,238.252 452.279,236.718 C452.24,232.421 448.373,229.697 449.017,224.902 C449.681,220.068 451.595,216.337 457.123,215.302 C461.693,214.453 466.908,215.869 467.826,222.402 C468.177,224.834 468.441,227.138 467.415,229.541 C466.468,231.718 464.564,232.451 466.771,233.974 C468.353,235.078 472.181,234.072 474.154,234.804 C476.087,235.537 477.884,236.787 479.857,237.578 C483.705,239.13 485.814,240.371 486.869,244.492 C487.669,247.607 483.939,249.365 483.041,251.64" fill="#447F41"/>
    <path d="M480.873,234.023 C477.796,232.666 474.769,232.07 471.937,232.109 C472.66,229.863 472.923,227.421 472.572,224.931 C471.449,217.07 464.789,212.666 456.38,214.218 C447.982,215.781 442.904,222.373 444.017,230.234 C444.3,232.197 444.886,233.925 445.697,235.419 C444.505,235.527 443.294,235.732 442.103,236.074 C433.851,238.457 429.544,245.673 431.634,253.642 C433.255,259.912 444.173,264.56 449.154,263.115 C454.349,261.611 457.904,258.486 459.837,254.892 C461.566,256.904 463.861,258.662 466.634,259.902 C475.111,263.681 480.189,259.482 484.378,251.875 C488.558,244.248 489.339,237.822 480.873,234.023 z M480.531,250.039 C478.841,254.316 475.15,256.826 469.076,254.951 C466.263,254.082 464.525,252.871 462.904,250.693 C461.595,248.964 460.169,246.611 457.669,248.701 C454.29,251.552 454.642,254.902 449.857,256.191 C442.904,258.066 439.349,254.98 438.324,251.484 C437.318,248.056 438.958,243.33 441.585,241.171 C442.884,240.087 453.49,238.701 453.48,237.48 C453.451,234.101 450.404,231.953 450.921,228.173 C451.439,224.384 452.953,221.435 457.298,220.625 C460.902,219.96 465.003,221.074 465.726,226.201 C466.009,228.125 466.205,229.951 465.404,231.826 C464.662,233.554 463.158,234.13 464.896,235.332 C466.146,236.181 469.154,235.4 470.697,235.986 C472.23,236.562 473.646,237.548 475.189,238.164 C478.236,239.384 479.877,240.351 480.716,243.613 C481.351,246.054 481.224,248.242 480.531,250.039" fill="#97A958"/>
    <path d="M326.165,226.562 C323.05,223.398 319.662,221.181 316.293,219.785 C318.031,217.529 319.291,214.824 319.828,211.757 C321.556,202.021 315.345,193.525 304.74,191.093 C294.134,188.652 285.541,193.75 283.822,203.476 C283.373,205.908 283.412,208.193 283.783,210.371 C282.337,209.882 280.833,209.511 279.251,209.306 C268.529,207.91 260.599,214.14 259.984,224.462 C259.369,234.775 266.429,242.968 277.152,244.375 C283.91,245.254 289.349,243.408 293.06,240.195 C294.33,243.437 296.38,246.621 299.203,249.472 C307.796,258.164 314.935,255.957 322.884,249.218 C330.814,242.46 334.769,235.253 326.165,226.562 z M316.498,242.656 C312.845,246.787 310.54,250.214 304.027,244.941 C301.009,242.5 299.418,240.214 298.314,236.865 C297.435,234.179 296.644,230.722 292.865,231.894 C287.767,233.486 286.869,237.597 280.658,236.67 C271.673,235.322 268.636,229.921 268.783,225.332 C268.919,220.849 272.728,216.171 276.673,214.97 C278.646,214.384 291.79,218.125 292.259,216.708 C293.548,212.744 290.736,208.71 292.826,204.57 C294.916,200.41 297.865,197.753 303.343,199.003 C307.875,200.048 312.318,203.427 311.205,209.785 C310.794,212.158 310.306,214.375 308.627,216.162 C307.074,217.792 305.052,217.695 306.664,219.97 C307.826,221.621 311.712,222.207 313.314,223.681 C314.915,225.117 316.205,226.972 317.826,228.496 C320.97,231.445 322.533,233.427 322.279,237.617 C322.074,240.8 318.04,240.927 316.498,242.656" fill="#447F41"/>
    <path d="M319.847,225.634 C317.396,223.164 314.73,221.416 312.064,220.312 C313.451,218.544 314.427,216.416 314.857,214.003 C316.205,206.337 311.322,199.648 302.982,197.724 C294.642,195.81 287.865,199.814 286.498,207.48 C286.165,209.394 286.185,211.201 286.498,212.9 C285.345,212.519 284.154,212.216 282.914,212.07 C274.466,210.966 268.236,215.869 267.748,223.994 C267.357,230.4 276.146,239.003 281.263,239.668 C286.585,240.361 290.873,238.916 293.793,236.396 C294.789,238.925 296.4,241.435 298.626,243.691 C305.384,250.537 311.429,248.701 317.679,243.398 C323.939,238.086 326.625,232.49 319.847,225.634 z M314.642,240.175 C311.771,243.437 307.552,244.267 302.416,240.127 C300.033,238.193 298.793,236.396 297.923,233.759 C297.24,231.65 296.615,228.925 293.627,229.853 C289.593,231.103 288.919,234.336 284.037,233.603 C276.947,232.539 274.554,228.3 274.671,224.687 C274.779,221.142 277.777,217.47 280.873,216.533 C282.435,216.054 292.787,219.013 293.148,217.89 C294.154,214.775 291.966,211.591 293.587,208.33 C295.248,205.058 297.552,202.959 301.869,203.955 C305.443,204.775 308.958,207.441 308.08,212.441 C307.748,214.306 307.367,216.054 306.039,217.461 C304.818,218.74 303.246,218.681 304.486,220.458 C305.404,221.757 308.47,222.226 309.74,223.378 C310.99,224.521 312.015,225.986 313.285,227.177 C315.755,229.502 316.996,231.045 316.79,234.355 C316.625,236.865 315.843,238.818 314.642,240.175" fill="#97A958"/>
    <path d="M359.642,337.021 C362.445,333.828 364.251,330.4 365.248,327.011 C367.738,328.671 370.619,329.834 373.783,330.283 C383.802,331.699 391.615,325.283 392.767,314.697 C393.9,304.111 387.708,295.732 377.679,294.326 C375.179,293.964 372.865,294.072 370.736,294.492 C371.039,293.037 371.224,291.533 371.234,289.961 C371.322,279.287 364.056,271.621 353.568,271.318 C343.08,271.005 335.697,278.261 335.609,288.935 C335.56,295.664 338.089,301.015 341.791,304.599 C338.685,305.947 335.716,308.076 333.187,310.947 C325.482,319.746 328.587,326.757 336.38,334.423 C344.164,342.089 351.927,345.8 359.642,337.021 z M342.21,327.91 C337.572,324.414 333.841,322.207 338.353,315.595 C340.443,312.539 342.552,310.888 345.794,309.707 C348.392,308.759 351.79,307.861 350.13,304.14 C347.904,299.111 343.646,298.369 343.822,292.187 C344.066,283.232 349.134,280.058 353.783,280.068 C358.324,280.078 363.509,283.691 365.208,287.578 C366.048,289.521 363.9,302.666 365.365,303.076 C369.525,304.228 373.255,301.347 377.689,303.291 C382.142,305.224 385.199,308.076 384.603,313.554 C384.105,318.086 381.253,322.597 374.71,321.669 C372.259,321.337 369.974,320.927 367.962,319.296 C366.126,317.822 365.97,315.82 363.871,317.47 C362.357,318.662 362.24,322.539 360.951,324.179 C359.701,325.81 357.982,327.148 356.654,328.798 C354.056,331.992 352.259,333.613 348.002,333.476 C344.779,333.369 344.134,329.375 342.21,327.91" fill="#447F41"/>
    <path d="M359.779,330.722 C361.986,328.212 363.412,325.507 364.193,322.841 C366.146,324.16 368.421,325.078 370.912,325.429 C378.802,326.533 384.955,321.494 385.853,313.154 C386.751,304.824 381.869,298.212 373.978,297.099 C372.005,296.826 370.179,296.904 368.509,297.246 C368.753,296.103 368.9,294.912 368.91,293.681 C368.978,285.273 363.255,279.238 354.994,278.994 C348.49,278.808 340.892,287.783 340.853,292.871 C340.814,298.164 342.816,302.373 345.716,305.195 C343.275,306.25 340.951,307.929 338.949,310.195 C332.884,317.109 335.482,323.056 341.605,329.101 C347.728,335.146 353.714,337.646 359.779,330.722 z M344.457,325.986 C340.833,323.222 339.466,319.062 343.011,313.857 C344.662,311.445 346.322,310.146 348.88,309.209 C350.921,308.476 353.587,307.763 352.289,304.843 C350.521,300.888 347.201,300.302 347.318,295.429 C347.513,288.379 351.498,285.878 355.169,285.878 C358.744,285.888 362.806,288.74 364.154,291.796 C364.818,293.33 363.138,303.681 364.29,304.003 C367.552,304.912 370.502,302.636 373.998,304.16 C377.494,305.703 379.896,307.929 379.437,312.246 C379.046,315.82 376.8,319.365 371.654,318.642 C369.72,318.369 367.904,318.056 366.322,316.777 C364.877,315.605 364.759,314.043 363.099,315.332 C361.908,316.279 361.81,319.335 360.814,320.625 C359.818,321.894 358.47,322.949 357.425,324.248 C355.375,326.767 353.978,328.046 350.599,327.929 C348.07,327.851 345.99,327.138 344.457,325.986" fill="#97A958"/>
    <path d="M191.947,278.32 C191.947,292.129 176.165,303.349 156.703,303.349 C137.24,303.349 121.459,292.129 121.459,278.32 C121.459,264.492 137.24,253.291 156.703,253.291 C176.165,253.291 191.947,264.492 191.947,278.32" fill="#DE4547"/>
    <path d="M191.126,274.482 C191.126,287.421 175.365,297.939 155.892,297.939 C136.439,297.939 120.658,287.421 120.658,274.482 C120.658,261.533 136.439,251.025 155.892,251.025 C175.365,251.025 191.126,261.533 191.126,274.482 z" fill="url(#Gradient_12)"/>
    <path d="M139.896,271.884 C139.896,274.14 137.064,275.966 133.568,275.966 C130.091,275.966 127.259,274.14 127.259,271.884 C127.259,269.638 130.091,267.822 133.568,267.822 C137.064,267.822 139.896,269.638 139.896,271.884" fill="#ED9A83"/>
    <path d="M151.898,284.619 C154.466,286.669 151.341,287.724 148.431,288.242 C145.384,288.769 138.919,289.765 138.919,285.019 C138.919,282.578 141.742,281.377 143.958,281.084 C147.064,280.693 148.314,282.421 150.794,283.877 C151.244,284.13 151.615,284.384 151.898,284.619" fill="#ED9A83"/>
    <path d="M186.517,272.959 C186.771,274.082 186.341,275.234 184.886,276.103 C181.947,277.841 175.58,276.904 175.58,273.027 C175.58,270.595 178.412,269.384 180.619,269.101 C183.177,268.779 186.068,270.81 186.517,272.959" fill="#ED9A83"/>
    <path d="M167.474,272.519 C166.927,272.685 166.419,272.812 166.019,272.88 C162.591,273.535 153.246,274.384 153.246,269.404 C153.246,267.265 155.941,266.005 157.376,264.765 C158.9,263.466 159.671,262.734 161.908,262.402 C165.306,261.904 170.892,262.246 173.695,264.375 C178.236,267.802 171.439,271.289 167.474,272.519" fill="#ED9A83"/>
    <path d="M176.185,283.261 C178.744,285.322 175.638,286.376 172.708,286.884 C169.662,287.412 163.197,288.408 163.197,283.662 C163.197,281.23 166.019,280.019 168.226,279.746 C171.341,279.345 172.591,281.074 175.091,282.529 C175.521,282.793 175.892,283.037 176.185,283.261" fill="#ED9A83"/>
    <path d="M156.273,258.476 C156.459,258.935 156.556,259.423 156.517,259.961 C156.302,263.564 143.851,263.789 143.851,258.691 C143.851,253.105 154.525,254.072 156.273,258.476" fill="#ED9A83"/>
    <path d="M414.759,283.701 C404.388,283.701 395.99,291.045 395.99,300.117 C395.99,309.179 404.388,316.543 414.759,316.543 C425.121,316.543 433.519,309.179 433.519,300.117 C433.519,291.045 425.121,283.701 414.759,283.701 z M414.759,305.312 C408.529,305.312 403.47,302.295 403.47,298.564 C403.47,294.834 408.529,291.806 414.759,291.806 C420.99,291.806 426.029,294.834 426.029,298.564 C426.029,302.295 420.99,305.312 414.759,305.312" fill="#222F3D"/>
    <path d="M358.08,236.591 C347.523,236.591 338.978,243.945 338.978,252.998 C338.978,262.07 347.523,269.423 358.08,269.423 C368.627,269.423 377.181,262.07 377.181,252.998 C377.181,243.945 368.627,236.591 358.08,236.591 z M358.08,258.203 C351.732,258.203 346.595,255.185 346.595,251.445 C346.595,247.724 351.732,244.707 358.08,244.707 C364.418,244.707 369.544,247.724 369.544,251.445 C369.544,255.185 364.418,258.203 358.08,258.203" fill="#222F3D"/>
    <path d="M224.876,246.425 C214.33,246.425 205.775,253.779 205.775,262.841 C205.775,271.904 214.33,279.257 224.876,279.257 C235.414,279.257 243.968,271.904 243.968,262.841 C243.968,253.779 235.414,246.425 224.876,246.425 z M224.876,268.037 C218.529,268.037 213.382,265.009 213.382,261.279 C213.382,257.558 218.529,254.531 224.876,254.531 C231.214,254.531 236.361,257.558 236.361,261.279 C236.361,265.009 231.214,268.037 224.876,268.037" fill="#222F3D"/>
    <path d="M427.806,194.58 C417.259,194.58 408.705,201.923 408.705,210.986 C408.705,220.058 417.259,227.412 427.806,227.412 C438.353,227.412 446.908,220.058 446.908,210.986 C446.908,201.923 438.353,194.58 427.806,194.58 z M427.806,216.181 C421.468,216.181 416.322,213.173 416.322,209.443 C416.322,205.703 421.468,202.695 427.806,202.695 C434.154,202.695 439.29,205.703 439.29,209.443 C439.29,213.173 434.154,216.181 427.806,216.181" fill="#222F3D"/>
    <path d="M116.742,273.242 C106.205,273.242 97.65,280.586 97.65,289.648 C97.65,298.72 106.205,306.074 116.742,306.074 C127.289,306.074 135.834,298.72 135.834,289.648 C135.834,280.586 127.289,273.242 116.742,273.242 z M116.742,294.853 C110.404,294.853 105.248,291.826 105.248,288.095 C105.248,284.375 110.404,281.357 116.742,281.357 C123.099,281.357 128.236,284.375 128.236,288.095 C128.236,291.826 123.099,294.853 116.742,294.853" fill="#222F3D"/>
    <path d="M186.478,188.32 C175.931,188.32 167.386,195.673 167.386,204.736 C167.386,213.808 175.931,221.162 186.478,221.162 C197.025,221.162 205.58,213.808 205.58,204.736 C205.58,195.673 197.025,188.32 186.478,188.32 z M186.478,209.931 C180.13,209.931 174.994,206.914 174.994,203.183 C174.994,199.453 180.13,196.435 186.478,196.435 C192.826,196.435 197.962,199.453 197.962,203.183 C197.962,206.914 192.826,209.931 186.478,209.931" fill="#222F3D"/>
  </g>
</svg>
